ffmpeg version 2025-06-28-git-cfd1f81e7d-full_build-www.gyan.dev Copyright (c) 2000-2025 the FFmpeg developers
  built with gcc 15.1.0 (Rev4, Built by MSYS2 project)
  configuration: --enable-gpl --enable-version3 --enable-static --disable-w32threads --disable-autodetect --enable-fontconfig --enable-iconv --enable-gnutls --enable-lcms2 --enable-libxml2 --enable-gmp --enable-bzlib --enable-lzma --enable-libsnappy --enable-zlib --enable-librist --enable-libsrt --enable-libssh --enable-libzmq --enable-avisynth --enable-libbluray --enable-libcaca --enable-libdvdnav --enable-libdvdread --enable-sdl2 --enable-libaribb24 --enable-libaribcaption --enable-libdav1d --enable-libdavs2 --enable-libopenjpeg --enable-libquirc --enable-libuavs3d --enable-libxevd --enable-libzvbi --enable-liboapv --enable-libqrencode --enable-librav1e --enable-libsvtav1 --enable-libvvenc --enable-libwebp --enable-libx264 --enable-libx265 --enable-libxavs2 --enable-libxeve --enable-libxvid --enable-libaom --enable-libjxl --enable-libvpx --enable-mediafoundation --enable-libass --enable-frei0r --enable-libfreetype --enable-libfribidi --enable-libharfbuzz --enable-liblensfun --enable-libvidstab --enable-libvmaf --enable-libzimg --enable-amf --enable-cuda-llvm --enable-cuvid --enable-dxva2 --enable-d3d11va --enable-d3d12va --enable-ffnvcodec --enable-libvpl --enable-nvdec --enable-nvenc --enable-vaapi --enable-libshaderc --enable-vulkan --enable-libplacebo --enable-opencl --enable-libcdio --enable-openal --enable-libgme --enable-libmodplug --enable-libopenmpt --enable-libopencore-amrwb --enable-libmp3lame --enable-libshine --enable-libtheora --enable-libtwolame --enable-libvo-amrwbenc --enable-libcodec2 --enable-libilbc --enable-libgsm --enable-liblc3 --enable-libopencore-amrnb --enable-libopus --enable-libspeex --enable-libvorbis --enable-ladspa --enable-libbs2b --enable-libflite --enable-libmysofa --enable-librubberband --enable-libsoxr --enable-chromaprint
  libavutil      60.  3.100 / 60.  3.100
  libavcodec     62.  4.100 / 62.  4.100
  libavformat    62.  1.101 / 62.  1.101
  libavdevice    62.  0.100 / 62.  0.100
  libavfilter    11.  0.100 / 11.  0.100
  libswscale      9.  0.100 /  9.  0.100
  libswresample   6.  0.100 /  6.  0.100
Input #0, mov,mp4,m4a,3gp,3g2,mj2, from 'temp.mp4':
  Metadata:
    major_brand     : isom
    minor_version   : 512
    compatible_brands: isomiso2avc1mp41
    encoder         : Lavf62.1.101
  Duration: 00:05:51.55, start: 0.000000, bitrate: 12109 kb/s
  Stream #0:0[0x1](eng): Video: h264 (Main) (avc1 / 0x31637661), yuv420p(progressive), 1080x1920 [SAR 1:1 DAR 9:16], 11934 kb/s, 60 fps, 60 tbr, 15360 tbn, start 0.021029 (default)
    Metadata:
      handler_name    : ?Mainconcept Video Media Handler
      vendor_id       : [0][0][0][0]
      encoder         : Lavc62.4.100 h264_nvenc
  Stream #0:1[0x2](eng): Audio: aac (LC) (mp4a / 0x6134706D), 48000 Hz, stereo, fltp, 162 kb/s (default)
    Metadata:
      handler_name    : #Mainconcept MP4 Sound Media Handler
      vendor_id       : [0][0][0][0]
Input #1, mp3, from 'C:/Users/Admin/Music\Cam_Tu_Cau_-_Remix_KLICKAUD.mp3':
  Duration: 00:04:41.22, start: 0.025057, bitrate: 128 kb/s
  Stream #1:0: Audio: mp3 (mp3float), 44100 Hz, stereo, fltp, 128 kb/s, start 0.025057
    Metadata:
      encoder         : LAME3.100
    Side data:
      replaygain: track gain - -6.000000, track peak - unknown, album gain - unknown, album peak - unknown, 
Stream mapping:
  Stream #0:1 (aac) -> amix
  Stream #1:0 (mp3float) -> volume:default
  Stream #0:0 -> #0:0 (copy)
  amix:default -> Stream #0:1 (aac)
Press [q] to stop, [?] for help
Output #0, mp4, to 'E:/New folder\3.mp4':
  Metadata:
    major_brand     : isom
    minor_version   : 512
    compatible_brands: isomiso2avc1mp41
    encoder         : Lavf62.1.101
  Stream #0:0(eng): Video: h264 (Main) (avc1 / 0x31637661), yuv420p(progressive), 1080x1920 [SAR 1:1 DAR 9:16], q=2-31, 11934 kb/s, 60 fps, 60 tbr, 15360 tbn (default)
    Metadata:
      handler_name    : ?Mainconcept Video Media Handler
      vendor_id       : [0][0][0][0]
      encoder         : Lavc62.4.100 h264_nvenc
  Stream #0:1: Audio: aac (LC) (mp4a / 0x6134706D), 48000 Hz, stereo, fltp, 128 kb/s
    Metadata:
      encoder         : Lavc62.4.100 aac
frame= 1161 fps=0.0 q=-1.0 size=   27904KiB time=00:00:19.41 bitrate=11774.9kbits/s speed=37.2x elapsed=0:00:00.52    frame= 1185 fps=1139 q=-1.0 size=   28672KiB time=00:00:19.79 bitrate=11864.3kbits/s speed=  19x elapsed=0:00:01.04    frame= 2391 fps=1542 q=-1.0 size=   57600KiB time=00:00:39.93 bitrate=11815.4kbits/s speed=25.8x elapsed=0:00:01.55    frame= 3653 fps=1760 q=-1.0 size=   88576KiB time=00:01:00.97 bitrate=11901.1kbits/s speed=29.4x elapsed=0:00:02.07    frame= 4823 fps=1868 q=-1.0 size=  117504KiB time=00:01:20.46 bitrate=11962.2kbits/s speed=31.2x elapsed=0:00:02.58    frame= 6213 fps=2006 q=-1.0 size=  151296KiB time=00:01:43.57 bitrate=11966.6kbits/s speed=33.4x elapsed=0:00:03.09    frame= 7661 fps=2122 q=-1.0 size=  187136KiB time=00:02:07.72 bitrate=12002.7kbits/s speed=35.4x elapsed=0:00:03.61    frame= 8887 fps=2154 q=-1.0 size=  217088KiB time=00:02:28.16 bitrate=12003.1kbits/s speed=35.9x elapsed=0:00:04.12    frame=10117 fps=2171 q=-1.0 size=  247552KiB time=00:02:48.66 bitrate=12023.8kbits/s speed=36.2x elapsed=0:00:04.65    frame=11251 fps=2171 q=-1.0 size=  274944KiB time=00:03:07.60 bitrate=12005.7kbits/s speed=36.2x elapsed=0:00:05.18    frame=12347 fps=2170 q=-1.0 size=  301824KiB time=00:03:25.86 bitrate=12010.4kbits/s speed=36.2x elapsed=0:00:05.68    frame=13577 fps=2187 q=-1.0 size=  332288KiB time=00:03:46.36 bitrate=12025.1kbits/s speed=36.5x elapsed=0:00:06.20    frame=14823 fps=2206 q=-1.0 size=  362752KiB time=00:04:07.14 bitrate=12023.9kbits/s speed=36.8x elapsed=0:00:06.72    frame=16065 fps=2218 q=-1.0 size=  393472KiB time=00:04:27.81 bitrate=12035.5kbits/s speed=  37x elapsed=0:00:07.24    frame=17343 fps=2238 q=-1.0 size=  425472KiB time=00:04:49.08 bitrate=12056.8kbits/s speed=37.3x elapsed=0:00:07.74    frame=18601 fps=2250 q=-1.0 size=  456192KiB time=00:05:10.08 bitrate=12052.1kbits/s speed=37.5x elapsed=0:00:08.26    frame=19763 fps=2251 q=-1.0 size=  484864KiB time=00:05:29.45 bitrate=12056.5kbits/s speed=37.5x elapsed=0:00:08.78    frame=20875 fps=2245 q=-1.0 size=  512256KiB time=00:05:47.96 bitrate=12059.7kbits/s speed=37.4x elapsed=0:00:09.29    [out#0/mp4 @ 000002613e194400] video:512134KiB audio:5727KiB subtitle:0KiB other streams:0KiB global headers:0KiB muxing overhead: 0.106120%
frame=21091 fps=2241 q=-1.0 Lsize=  518410KiB time=00:05:51.50 bitrate=12081.9kbits/s speed=37.4x elapsed=0:00:09.41    
[aac @ 000002613dd8c500] Qavg: 589.657
